<svg width="117" height="50" viewBox="0 0 117 50" fill="none" xmlns="http://www.w3.org/2000/svg">
<path d="M3.15 33V21.926H1.232V18.664H3.15V15.108C3.15 13.764 3.36 12.5973 3.78 11.608C4.20933 10.6093 4.816 9.844 5.6 9.312C6.384 8.77067 7.33133 8.5 8.442 8.5C9.13267 8.5 9.80933 8.60733 10.472 8.822C11.1347 9.02733 11.6993 9.31667 12.166 9.69L10.682 12.7C10.2433 12.4293 9.744 12.294 9.184 12.294C8.69867 12.294 8.33 12.42 8.078 12.672C7.83533 12.9147 7.66733 13.2553 7.574 13.694C7.49 14.1233 7.448 14.6273 7.448 15.206V18.664H10.836V21.926H7.448V33H3.15ZM21.0464 33.448C18.433 33.448 16.5477 32.93 15.3904 31.894C14.233 30.858 13.6544 29.164 13.6544 26.812V18.664H17.9524V25.804C17.9524 27.316 18.1857 28.3847 18.6524 29.01C19.1284 29.6353 19.9264 29.948 21.0464 29.948C22.185 29.948 22.983 29.6353 23.4404 29.01C23.907 28.3847 24.1404 27.316 24.1404 25.804V18.664H28.4384V26.812C28.4384 29.164 27.8597 30.858 26.7024 31.894C25.5544 32.93 23.669 33.448 21.0464 33.448ZM33.159 33V18.664H37.457V20.26C38.0077 19.644 38.6937 19.1493 39.515 18.776C40.3457 18.4027 41.2603 18.216 42.259 18.216C43.3603 18.216 44.3263 18.4587 45.157 18.944C45.997 19.42 46.655 20.0873 47.131 20.946C47.607 21.7953 47.845 22.7893 47.845 23.928V33H43.547V24.838C43.547 23.8113 43.2763 23.0133 42.735 22.444C42.203 21.8653 41.4703 21.576 40.537 21.576C39.9023 21.576 39.3517 21.7067 38.885 21.968C38.4277 22.22 38.073 22.57 37.821 23.018C37.5783 23.4567 37.457 23.956 37.457 24.516V33H33.159ZM58.5638 33.448C57.2664 33.448 56.0811 33.126 55.0078 32.482C53.9438 31.8287 53.0944 30.928 52.4598 29.78C51.8251 28.632 51.5078 27.316 51.5078 25.832C51.5078 24.376 51.8158 23.0787 52.4318 21.94C53.0478 20.792 53.8924 19.8867 54.9658 19.224C56.0484 18.552 57.2851 18.216 58.6758 18.216C59.6838 18.216 60.6171 18.412 61.4758 18.804C62.3344 19.1867 63.0484 19.7233 63.6178 20.414V8.92H67.9158V33H63.6178V31.11C62.9831 31.8473 62.2318 32.4213 61.3638 32.832C60.4958 33.2427 59.5624 33.448 58.5638 33.448ZM59.8518 29.794C60.6078 29.794 61.2751 29.626 61.8538 29.29C62.4324 28.9447 62.8851 28.4733 63.2118 27.876C63.5478 27.2787 63.7158 26.602 63.7158 25.846C63.7158 25.0807 63.5478 24.3993 63.2118 23.802C62.8851 23.2047 62.4324 22.7333 61.8538 22.388C61.2751 22.0427 60.6124 21.87 59.8658 21.87C59.1284 21.87 58.4704 22.0427 57.8918 22.388C57.3224 22.7333 56.8698 23.2093 56.5338 23.816C56.1978 24.4133 56.0298 25.0947 56.0298 25.86C56.0298 26.616 56.1931 27.2927 56.5198 27.89C56.8464 28.478 57.2991 28.9447 57.8778 29.29C58.4564 29.626 59.1144 29.794 59.8518 29.794ZM73.4475 33V18.664H75.4915V20.624C76.0608 19.8307 76.7422 19.2333 77.5355 18.832C78.3288 18.4213 79.2155 18.216 80.1955 18.216C81.3715 18.216 82.3935 18.4867 83.2615 19.028C84.1388 19.5693 84.7455 20.3067 85.0815 21.24C85.6322 20.3253 86.3322 19.5927 87.1815 19.042C88.0402 18.4913 89.0575 18.216 90.2335 18.216C91.2508 18.216 92.1562 18.426 92.9495 18.846C93.7428 19.2567 94.3635 19.8633 94.8115 20.666C95.2688 21.4593 95.4975 22.43 95.4975 23.578V33H93.4535V24.152C93.4535 22.8453 93.1128 21.8093 92.4315 21.044C91.7502 20.2787 90.8402 19.896 89.7015 19.896C88.9175 19.896 88.2082 20.0687 87.5735 20.414C86.9388 20.7593 86.4348 21.2073 86.0615 21.758C85.6882 22.2993 85.5015 22.8593 85.5015 23.438V33H83.4575V23.942C83.4575 22.7007 83.1168 21.716 82.4355 20.988C81.7635 20.26 80.8722 19.896 79.7615 19.896C78.9775 19.896 78.2588 20.064 77.6055 20.4C76.9615 20.7267 76.4482 21.1513 76.0655 21.674C75.6828 22.1967 75.4915 22.7333 75.4915 23.284V33H73.4475ZM108.003 33.448C106.501 33.448 105.157 33.1167 103.971 32.454C102.795 31.7913 101.871 30.8907 101.199 29.752C100.527 28.604 100.191 27.316 100.191 25.888C100.191 24.8147 100.383 23.816 100.765 22.892C101.157 21.9587 101.699 21.142 102.389 20.442C103.08 19.742 103.883 19.196 104.797 18.804C105.712 18.412 106.687 18.216 107.723 18.216C109.142 18.216 110.402 18.5287 111.503 19.154C112.614 19.77 113.491 20.624 114.135 21.716C114.789 22.808 115.134 24.068 115.171 25.496C115.171 25.608 115.167 25.7013 115.157 25.776C115.157 25.8413 115.148 25.9253 115.129 26.028H102.221C102.221 27.148 102.473 28.1373 102.977 28.996C103.481 29.8547 104.172 30.5313 105.049 31.026C105.936 31.5113 106.949 31.754 108.087 31.754C109.17 31.754 110.141 31.53 110.999 31.082C111.867 30.6247 112.591 29.9713 113.169 29.122L114.681 29.934C114 31.0447 113.071 31.908 111.895 32.524C110.729 33.14 109.431 33.448 108.003 33.448ZM102.333 24.488H113.127C113.006 23.592 112.693 22.8033 112.189 22.122C111.685 21.4313 111.046 20.89 110.271 20.498C109.506 20.106 108.666 19.91 107.751 19.91C106.809 19.91 105.95 20.106 105.175 20.498C104.401 20.8807 103.761 21.4173 103.257 22.108C102.763 22.7893 102.455 23.5827 102.333 24.488Z" fill="white"/>
<path d="M83.7151 3.93902C83.9355 4.13251 84.1971 4.22926 84.5 4.22926C84.803 4.22926 85.0508 4.13251 85.2436 3.93902C85.4639 3.71788 85.5741 3.4691 85.5741 3.19268V1.07805C85.5741 0.77398 85.4639 0.525202 85.2436 0.331707C85.0508 0.110569 84.803 0 84.5 0C84.1971 0 83.9355 0.110569 83.7151 0.331707C83.5224 0.525202 83.4259 0.77398 83.4259 1.07805V3.19268C83.4259 3.4691 83.5224 3.71788 83.7151 3.93902ZM97.1824 8.91463L98.6696 7.42195C98.8898 7.22845 99 6.97967 99 6.67561C99 6.37154 98.8898 6.12276 98.6696 5.92926C98.4768 5.70812 98.2289 5.59756 97.9259 5.59756C97.6506 5.59756 97.4027 5.70812 97.1824 5.92926L95.6952 7.42195C95.4749 7.64308 95.3647 7.90569 95.3647 8.20975C95.3647 8.48617 95.4749 8.73495 95.6952 8.95604C95.9155 9.14962 96.1634 9.2463 96.4388 9.2463C96.7417 9.2463 96.9896 9.13572 97.1824 8.91463ZM71.8177 8.91463C72.0104 9.13572 72.2583 9.2463 72.5613 9.2463C72.8642 9.2463 73.1121 9.14962 73.3048 8.95604C73.4976 8.73495 73.594 8.48617 73.594 8.20975C73.6216 7.90569 73.5252 7.64308 73.3048 7.42195L71.8177 5.92926C71.5973 5.70812 71.3357 5.59756 71.0328 5.59756C70.7574 5.59756 70.5095 5.70812 70.2892 5.92926C70.0964 6.12276 70 6.37154 70 6.67561C70 6.97967 70.1102 7.22845 70.3305 7.42195L71.8177 8.91463ZM74.1724 17C74.6681 14.5398 75.8799 12.5081 77.8077 10.9049C79.7356 9.3016 81.9663 8.49999 84.5 8.49999C87.0337 8.49999 89.2645 9.3016 91.1923 10.9049C93.1201 12.5081 94.332 14.5398 94.8277 17H97.0584C96.6453 13.987 95.2408 11.4715 92.8448 9.45368C90.4762 7.40812 87.6947 6.38536 84.5 6.38536C81.3053 6.38536 78.5099 7.40812 76.114 9.45368C73.7455 11.4715 72.3547 13.987 71.9416 17H74.1724Z" fill="#F2B449"/>
<path d="M4.872 47.128C4.37333 47.128 3.90533 47.04 3.468 46.864C3.03067 46.688 2.64533 46.444 2.312 46.132C1.97867 45.8173 1.71867 45.4533 1.532 45.04C1.34533 44.6267 1.252 44.1827 1.252 43.708C1.252 43.2307 1.34533 42.7853 1.532 42.372C1.72133 41.956 1.98133 41.592 2.312 41.28C2.64533 40.9653 3.02933 40.72 3.464 40.544C3.90133 40.368 4.368 40.28 4.864 40.28C5.26933 40.28 5.65467 40.3373 6.02 40.452C6.388 40.5667 6.70267 40.7173 6.964 40.904L6.404 42.004C6.22533 41.8627 6.008 41.752 5.752 41.672C5.496 41.592 5.228 41.552 4.948 41.552C4.62 41.552 4.316 41.6067 4.036 41.716C3.75867 41.8253 3.516 41.9773 3.308 42.172C3.10267 42.3667 2.94267 42.5947 2.828 42.856C2.71333 43.1173 2.656 43.4 2.656 43.704C2.656 44.008 2.71333 44.2907 2.828 44.552C2.94267 44.8133 3.10267 45.0413 3.308 45.236C3.516 45.4307 3.75867 45.5827 4.036 45.692C4.316 45.8013 4.62 45.856 4.948 45.856C5.228 45.856 5.496 45.816 5.752 45.736C6.008 45.656 6.22533 45.5453 6.404 45.404L6.964 46.504C6.71333 46.6853 6.40533 46.8347 6.04 46.952C5.67467 47.0693 5.28533 47.128 4.872 47.128ZM8.49719 47V40.4H9.79319V43.124H12.2612V40.4H13.5532V47H12.2612V44.26H9.79319V47H8.49719ZM15.0126 47L17.6646 40.4H18.8686L21.5166 47H20.1206L19.5606 45.496H16.9686L16.4086 47H15.0126ZM17.4126 44.36H19.1206L18.2646 42.148L17.4126 44.36ZM22.9728 47V40.4H25.2208C25.6715 40.4 26.0621 40.48 26.3928 40.64C26.7261 40.7973 26.9835 41.0253 27.1648 41.324C27.3488 41.62 27.4408 41.9773 27.4408 42.396C27.4408 42.7267 27.3821 43.0253 27.2648 43.292C27.1475 43.556 26.9795 43.7787 26.7608 43.96C26.5421 44.1413 26.2768 44.276 25.9648 44.364L28.1248 47H26.4808L24.5768 44.512H24.2688V47H22.9728ZM24.2688 43.432H24.8208C25.0901 43.432 25.3181 43.3933 25.5048 43.316C25.6915 43.2387 25.8341 43.1253 25.9328 42.976C26.0341 42.824 26.0848 42.6427 26.0848 42.432C26.0848 42.112 25.9741 41.8667 25.7528 41.696C25.5341 41.5227 25.2235 41.436 24.8208 41.436H24.2688V43.432ZM29.4919 47V40.4H30.7879V47H29.4919ZM33.6186 47V41.544H31.9466V40.4H36.5866V41.544H34.9106V47H33.6186ZM39.5999 47V44.06L37.2039 40.4H38.7639L40.2479 42.74L41.7319 40.4H43.2919L40.8959 44.06V47H39.5999ZM47.2947 47V40.4H51.0027V41.536H48.2787L48.5907 41.252V43.484L48.2787 43.124H50.8227V44.26H48.2787L48.5907 43.9V47H47.2947ZM55.1903 47.128C54.3636 47.128 53.7383 46.9213 53.3143 46.508C52.8903 46.092 52.6783 45.476 52.6783 44.66V40.4H53.9743V44.288C53.9743 44.8453 54.069 45.2467 54.2583 45.492C54.4503 45.7347 54.761 45.856 55.1903 45.856C55.6196 45.856 55.929 45.7347 56.1183 45.492C56.3103 45.2467 56.4063 44.8453 56.4063 44.288V40.4H57.7023V44.66C57.7023 45.476 57.4903 46.092 57.0663 46.508C56.645 46.9213 56.0196 47.128 55.1903 47.128ZM59.8719 47V40.4H61.1679L64.0119 44.84V40.4H65.3079V47H64.0119L61.1679 42.56V47H59.8719ZM67.5862 47V40.4H69.3982C69.8676 40.4 70.3036 40.484 70.7062 40.652C71.1089 40.82 71.4609 41.0547 71.7622 41.356C72.0662 41.6573 72.3022 42.008 72.4702 42.408C72.6409 42.808 72.7262 43.24 72.7262 43.704C72.7262 44.1707 72.6422 44.604 72.4742 45.004C72.3062 45.4013 72.0702 45.7507 71.7662 46.052C71.4649 46.3507 71.1116 46.584 70.7062 46.752C70.3036 46.9173 69.8676 47 69.3982 47H67.5862ZM68.8822 45.84H69.2542C69.5529 45.84 69.8289 45.7867 70.0822 45.68C70.3356 45.5733 70.5556 45.424 70.7422 45.232C70.9289 45.04 71.0742 44.8147 71.1782 44.556C71.2822 44.2947 71.3342 44.0093 71.3342 43.7C71.3342 43.3933 71.2822 43.1107 71.1782 42.852C71.0742 42.5907 70.9289 42.364 70.7422 42.172C70.5556 41.9773 70.3356 41.8267 70.0822 41.72C69.8289 41.6133 69.5529 41.56 69.2542 41.56H68.8822V45.84ZM74.5116 47V40.4H76.7596C77.2102 40.4 77.6009 40.48 77.9316 40.64C78.2649 40.7973 78.5222 41.0253 78.7036 41.324C78.8876 41.62 78.9796 41.9773 78.9796 42.396C78.9796 42.7267 78.9209 43.0253 78.8036 43.292C78.6862 43.556 78.5182 43.7787 78.2996 43.96C78.0809 44.1413 77.8156 44.276 77.5036 44.364L79.6636 47H78.0196L76.1156 44.512H75.8076V47H74.5116ZM75.8076 43.432H76.3596C76.6289 43.432 76.8569 43.3933 77.0436 43.316C77.2302 43.2387 77.3729 43.1253 77.4716 42.976C77.5729 42.824 77.6236 42.6427 77.6236 42.432C77.6236 42.112 77.5129 41.8667 77.2916 41.696C77.0729 41.5227 76.7622 41.436 76.3596 41.436H75.8076V43.432ZM80.2066 47L82.8586 40.4H84.0626L86.7106 47H85.3146L84.7546 45.496H82.1626L81.6026 47H80.2066ZM82.6066 44.36H84.3146L83.4586 42.148L82.6066 44.36ZM88.1669 47V40.4H89.4629V47H88.1669ZM93.3122 47.128C93.0055 47.128 92.7229 47.0933 92.4642 47.024C92.2055 46.9573 91.9735 46.8733 91.7682 46.772C91.5655 46.668 91.3909 46.5613 91.2442 46.452C91.0975 46.3427 90.9815 46.2467 90.8962 46.164L91.5602 45.092C91.6482 45.1693 91.7535 45.256 91.8762 45.352C91.9989 45.448 92.1362 45.54 92.2882 45.628C92.4402 45.7133 92.6042 45.7853 92.7802 45.844C92.9589 45.9 93.1482 45.928 93.3482 45.928C93.5349 45.928 93.6989 45.8987 93.8402 45.84C93.9842 45.7813 94.0975 45.6947 94.1802 45.58C94.2629 45.4627 94.3042 45.3173 94.3042 45.144C94.3042 44.9867 94.2709 44.8533 94.2042 44.744C94.1375 44.632 94.0389 44.532 93.9082 44.444C93.7802 44.3533 93.6215 44.2653 93.4322 44.18C93.2455 44.092 93.0322 43.996 92.7922 43.892C92.6135 43.812 92.4429 43.7213 92.2802 43.62C92.1202 43.516 91.9775 43.396 91.8522 43.26C91.7269 43.124 91.6269 42.9707 91.5522 42.8C91.4802 42.6267 91.4442 42.4333 91.4442 42.22C91.4442 41.9667 91.4949 41.724 91.5962 41.492C91.6975 41.26 91.8415 41.0533 92.0282 40.872C92.2175 40.6907 92.4415 40.5467 92.7002 40.44C92.9615 40.3333 93.2522 40.28 93.5722 40.28C93.8122 40.28 94.0522 40.312 94.2922 40.376C94.5322 40.44 94.7562 40.524 94.9642 40.628C95.1722 40.732 95.3482 40.8453 95.4922 40.968L94.9522 41.984C94.8375 41.8853 94.7069 41.7973 94.5602 41.72C94.4162 41.64 94.2615 41.576 94.0962 41.528C93.9335 41.48 93.7682 41.456 93.6002 41.456C93.4109 41.456 93.2495 41.4893 93.1162 41.556C92.9855 41.6227 92.8842 41.712 92.8122 41.824C92.7429 41.9333 92.7082 42.056 92.7082 42.192C92.7082 42.304 92.7309 42.4 92.7762 42.48C92.8242 42.5573 92.8909 42.6253 92.9762 42.684C93.0615 42.74 93.1642 42.7947 93.2842 42.848C93.4042 42.8987 93.5362 42.9533 93.6802 43.012C93.9895 43.1427 94.2695 43.272 94.5202 43.4C94.7709 43.528 94.9855 43.6707 95.1642 43.828C95.3429 43.9827 95.4789 44.164 95.5722 44.372C95.6682 44.58 95.7162 44.828 95.7162 45.116C95.7162 45.5373 95.6149 45.8987 95.4122 46.2C95.2122 46.5013 94.9322 46.732 94.5722 46.892C94.2122 47.0493 93.7922 47.128 93.3122 47.128ZM97.5253 47V40.4H98.8213V47H97.5253ZM101.107 47V40.4H102.403L105.247 44.84V40.4H106.543V47H105.247L102.403 42.56V47H101.107ZM111.581 47.128C111.128 47.128 110.705 47.0413 110.313 46.868C109.921 46.6947 109.579 46.4533 109.285 46.144C108.992 45.832 108.763 45.468 108.597 45.052C108.432 44.636 108.349 44.1853 108.349 43.7C108.349 43.236 108.427 42.7987 108.581 42.388C108.736 41.9747 108.959 41.6107 109.249 41.296C109.54 40.9787 109.891 40.7307 110.301 40.552C110.712 40.3707 111.172 40.28 111.681 40.28C111.969 40.28 112.259 40.312 112.549 40.376C112.843 40.44 113.124 40.5347 113.393 40.66C113.663 40.7827 113.905 40.9333 114.121 41.112L113.513 42.116C113.281 41.9 113 41.7333 112.669 41.616C112.341 41.496 112.017 41.436 111.697 41.436C111.383 41.436 111.104 41.492 110.861 41.604C110.621 41.7133 110.419 41.868 110.253 42.068C110.088 42.268 109.963 42.5027 109.877 42.772C109.792 43.0387 109.749 43.3293 109.749 43.644C109.749 43.988 109.797 44.3 109.893 44.58C109.989 44.86 110.123 45.1013 110.293 45.304C110.467 45.5067 110.668 45.6627 110.897 45.772C111.129 45.8813 111.379 45.936 111.645 45.936C111.859 45.936 112.064 45.9013 112.261 45.832C112.461 45.76 112.639 45.66 112.793 45.532C112.948 45.404 113.071 45.2533 113.161 45.08C113.252 44.9067 113.297 44.7173 113.297 44.512V44.412H111.565V43.408H114.617V44.408C114.617 44.8107 114.533 45.1787 114.365 45.512C114.2 45.8427 113.973 46.1293 113.685 46.372C113.397 46.612 113.072 46.7987 112.709 46.932C112.347 47.0627 111.971 47.128 111.581 47.128Z" fill="white"/>
</svg>
